# xmcd
#
# Track frame offsets:
#	150
#	12498
#	25553
#	41103
#	51996
#	65311
#	78350
#	91280
#	103487
#	117242
#
# Disc length: 1721 seconds
#
# Revision: 0
# Processed by: cddbd v1.5.2PL0 Copyright (c) Steve Scherf et al.
# Submitted via: EasyCDDAExtractor 12.0.1.1
#
DISCID=7f06b70a
DTITLE=Ron Nagle - Shine Down
DYEAR=2009
DGENRE=Gospel
TTITLE0=The Door Of Salvation
TTITLE1=This Life Is Not Mine Anymore
TTITLE2=He Took Your Place
TTITLE3=I Saw The Light
TTITLE4=My Lord
TTITLE5=Medley
TTITLE6=If We Never Meet Again
TTITLE7=Shine Down
TTITLE8=A New Life I Can Share
TTITLE9=Full Gospel Man
EXTD=
EXTT0=
EXTT1=
EXTT2=
EXTT3=
EXTT4=
EXTT5=
EXTT6=
EXTT7=
EXTT8=
EXTT9=
PLAYORDER=
